<?xml version="1.0" encoding="UTF-8" standalone="no"?>
<!-- Created with Inkscape (http://www.inkscape.org/) -->

<svg
   xmlns:dc="http://purl.org/dc/elements/1.1/"
   xmlns:cc="http://creativecommons.org/ns#"
   xmlns:rdf="http://www.w3.org/1999/02/22-rdf-syntax-ns#"
   xmlns:svg="http://www.w3.org/2000/svg"
   xmlns="http://www.w3.org/2000/svg"
   xmlns:xlink="http://www.w3.org/1999/xlink"
   xmlns:sodipodi="http://sodipodi.sourceforge.net/DTD/sodipodi-0.dtd"
   xmlns:inkscape="http://www.inkscape.org/namespaces/inkscape"
   height="150"
   id="svg1"
   inkscape:version="0.48.3.1 r9886"
   sodipodi:docname="open.svg"
   sodipodi:version="0.32"
   width="150"
   viewBox="0 0 150 150"
   preserveAspectRatio="xMidYMid meet"
   version="1.1">
  <defs
     id="defs3">
    <linearGradient
       id="linearGradient1501">
      <stop
         id="stop1502"
         offset="0.0000000"
         style="stop-color:#ffffff;stop-opacity:1.0000000;" />
      <stop
         id="stop1504"
         offset="1.0000000"
         style="stop-color:#ffffff;stop-opacity:0.0000000;" />
    </linearGradient>
    <linearGradient
       id="linearGradient1499"
       x1="687.96375"
       x2="330.88034"
       xlink:href="#linearGradient1501"
       y1="236.12772"
       y2="418.53635"
       gradientTransform="scale(0.98900911,1.011113)"
       gradientUnits="userSpaceOnUse" />
    <linearGradient
       id="linearGradient1497"
       x1="0.63247865"
       x2="-0.37606838"
       xlink:href="#linearGradient1492"
       y1="0.328125"
       y2="1.328125" />
    <linearGradient
       id="linearGradient1492">
      <stop
         id="stop1493"
         offset="0.0000000"
         style="stop-color:#c0c0c0;stop-opacity:1.0000000;" />
      <stop
         id="stop1496"
         offset="0.34923077"
         style="stop-color:#f1f1f1;stop-opacity:1.0000000;" />
      <stop
         id="stop1494"
         offset="1.0000000"
         style="stop-color:#f0f0f0;stop-opacity:1.0000000;" />
    </linearGradient>
    <linearGradient
       id="linearGradient1495"
       x1="141.7587"
       x2="29.829756"
       xlink:href="#linearGradient1492"
       y1="35.720387"
       y2="172.13377"
       gradientTransform="scale(0.95542499,1.0466546)"
       gradientUnits="userSpaceOnUse" />
    <linearGradient
       id="linearGradient1506"
       x1="0.052173913"
       x2="0.78260869"
       xlink:href="#linearGradient1507"
       y1="0.9765625"
       y2="0.0078125" />
    <radialGradient
       cx="24.825565"
       cy="176.56438"
       fx="27.010122"
       fy="137.43433"
       id="radialGradient1505"
       r="51.667702"
       xlink:href="#linearGradient1806"
       gradientUnits="userSpaceOnUse" />
    <linearGradient
       id="linearGradient1806">
      <stop
         id="stop1807"
         offset="0.0000000"
         style="stop-color:#000000;stop-opacity:0.40677965;" />
      <stop
         id="stop3276"
         offset="0.64777780"
         style="stop-color:#000000;stop-opacity:0.073446326;" />
      <stop
         id="stop1808"
         offset="1.0000000"
         style="stop-color:#000000;stop-opacity:0.0000000;" />
    </linearGradient>
    <radialGradient
       cx="0.49032259"
       cy="0.50649351"
       fx="0.49027237"
       fy="0.095238097"
       id="radialGradient1502"
       r="0.46014288"
       xlink:href="#linearGradient1806" />
    <linearGradient
       id="linearGradient1520">
      <stop
         id="stop1522"
         offset="0.0000000"
         style="stop-color:#bab5ab;stop-opacity:1.0000000;" />
      <stop
         id="stop1523"
         offset="1.0000000"
         style="stop-color:#807d74;stop-opacity:1.0000000;" />
    </linearGradient>
    <linearGradient
       id="linearGradient2102">
      <stop
         id="stop2103"
         offset="0.0000000"
         style="stop-color:#bab5ab;stop-opacity:1.0000000;" />
      <stop
         id="stop2104"
         offset="1.0000000"
         style="stop-color:#eae8e3;stop-opacity:1.0000000;" />
    </linearGradient>
    <linearGradient
       id="linearGradient1518">
      <stop
         id="stop1520"
         offset="0.0000000"
         style="stop-color:#000000;stop-opacity:1.0000000;" />
      <stop
         id="stop1521"
         offset="1.0000000"
         style="stop-color:#ebebeb;stop-opacity:1.0000000;" />
    </linearGradient>
    <linearGradient
       id="linearGradient1792">
      <stop
         id="stop1793"
         offset="0.0000000"
         style="stop-color:#000000;stop-opacity:0.084745765;" />
      <stop
         id="stop1795"
         offset="0.63222224"
         style="stop-color:#000000;stop-opacity:0.38418078;" />
      <stop
         id="stop1794"
         offset="1.0000000"
         style="stop-color:#000000;stop-opacity:0.0000000;" />
    </linearGradient>
    <linearGradient
       id="linearGradient1517">
      <stop
         id="stop1518"
         offset="0.0000000"
         style="stop-color:#ffffff;stop-opacity:0.0000000;" />
      <stop
         id="stop1519"
         offset="1.0000000"
         style="stop-color:#ffffff;stop-opacity:1.0000000;" />
    </linearGradient>
    <linearGradient
       id="linearGradient1511">
      <stop
         id="stop1512"
         offset="0.0000000"
         style="stop-color:#bab5ab;stop-opacity:1.0000000;" />
      <stop
         id="stop1513"
         offset="1.0000000"
         style="stop-color:#eae8e3;stop-opacity:1.0000000;" />
    </linearGradient>
    <linearGradient
       id="linearGradient1504">
      <stop
         id="stop1505"
         offset="0.0000000"
         style="stop-color:#a3a3a3;stop-opacity:1.0000000;" />
      <stop
         id="stop1506"
         offset="1.0000000"
         style="stop-color:#ffffff;stop-opacity:1.0000000;" />
    </linearGradient>
    <linearGradient
       gradientTransform="scale(1.38599,0.721506)"
       gradientUnits="userSpaceOnUse"
       id="linearGradient1507"
       x1="68.708969"
       x2="68.708969"
       xlink:href="#linearGradient1511"
       y1="111.90047"
       y2="191.01146" />
    <linearGradient
       id="linearGradient1510"
       x1="0.54601228"
       x2="0.54601228"
       xlink:href="#linearGradient1504"
       y1="0.7421875"
       y2="0.0546875" />
    <linearGradient
       id="linearGradient1514"
       x1="71.570862"
       x2="71.570862"
       xlink:href="#linearGradient1520"
       y1="24.678328"
       y2="59.025974"
       gradientTransform="matrix(1.148626,0,0,0.87060538,-6,8)"
       gradientUnits="userSpaceOnUse" />
    <radialGradient
       id="radialGradient1515"
       xlink:href="#linearGradient1511" />
    <linearGradient
       id="linearGradient1516"
       x1="29.482201"
       x2="30.272404"
       xlink:href="#linearGradient1517"
       y1="254.97339"
       y2="215.66348"
       gradientTransform="matrix(2.8445877,0,0,0.3515448,-6,8)"
       gradientUnits="userSpaceOnUse" />
    <linearGradient
       id="linearGradient1521"
       xlink:href="#linearGradient1792" />
    <radialGradient
       cx="0.50522649"
       cy="0.54545456"
       fx="0.5087108"
       fy="0.26136363"
       id="radialGradient1950"
       r="0.3842108"
       xlink:href="#linearGradient1792" />
    <linearGradient
       id="linearGradient1522"
       x1="0.36585367"
       x2="1.0731708"
       xlink:href="#linearGradient1518"
       y1="0.10687023"
       y2="1.9312977" />
    <linearGradient
       id="linearGradient1599"
       xlink:href="#linearGradient1792" />
    <linearGradient
       id="linearGradient2352"
       x1="0.50522649"
       x2="0.50522649"
       xlink:href="#linearGradient1792"
       y1="1.8974513"
       y2="0.32051283" />
    <linearGradient
       inkscape:collect="always"
       xlink:href="#linearGradient1511"
       id="linearGradient3047"
       gradientUnits="userSpaceOnUse"
       gradientTransform="matrix(1.38599,0,0,0.721506,-6,8)"
       x1="68.708969"
       y1="111.90047"
       x2="68.708969"
       y2="191.01146" />
  </defs>
  <sodipodi:namedview
     bordercolor="#666666"
     borderopacity="1.0"
     id="base"
     inkscape:cx="91.231971"
     inkscape:cy="62.376288"
     inkscape:pageopacity="0.0"
     inkscape:pageshadow="2"
     inkscape:window-height="501"
     inkscape:window-width="599"
     inkscape:window-x="489"
     inkscape:window-y="134"
     inkscape:zoom="1.6987524"
     pagecolor="#ffffff"
     showgrid="false"
     snaptogrid="false"
     inkscape:window-maximized="0"
     inkscape:current-layer="svg1">
    <inkscape:grid
       id="GridFromPre046Settings"
       type="xygrid"
       originx="0px"
       originy="0px"
       spacingx="2.5000000mm"
       spacingy="2.5000000mm"
       color="#3f3fff"
       empcolor="#3f3fff"
       opacity="0.15"
       empopacity="0.38"
       empspacing="5"
       units="mm"
       visible="true"
       enabled="true"
       snapvisiblegridlinesonly="true" />
  </sodipodi:namedview>
  <path
     d="m 21.173984,109.15517 0,-71.225376 c 0,-7.198089 3.548772,-12.395088 11.005249,-12.395088 l 36.447526,0 c 7.456486,0 8.361111,12.15813 15.817598,12.15813 l 41.521183,0 c 3.36654,0 5.93159,3.482341 5.93159,7.483675 l 0,63.978659 -110.723146,0 z"
     id="path1502"
     sodipodi:nodetypes="cczzzzzcc"
     style="fill:url(#linearGradient1514);fill-rule:evenodd;stroke:#565248;stroke-width:1.25;stroke-miterlimit:4;stroke-opacity:0.33962265;stroke-dasharray:none"
     inkscape:connector-curvature="0" />
  <path
     d="m 82.055313,175.83524 a 56.143108,56.143108 0 1 1 -112.286217,0 56.143108,56.143108 0 1 1 112.286217,0 z"
     id="path1809"
     sodipodi:cx="25.912205"
     sodipodi:cy="175.83524"
     sodipodi:rx="56.143108"
     sodipodi:ry="56.143108"
     sodipodi:type="arc"
     style="fill:url(#radialGradient1505);fill-opacity:1;fill-rule:evenodd;stroke-width:1pt"
     transform="matrix(1.442331,0,0,0.353388,37.56779,73.05502)" />
  <g
     id="g1527"
     style="fill-opacity:0.03773582"
     transform="matrix(0.92694,0,0,1.039779,-63.30231,-38.13672)">
    <path
       d="m 77.77611,171.71342 5.824529,-15.8773 c 0.534542,-1.45715 4.92402,-3.11375 9.313997,-3.11375 l 114.096544,0 c 3.88007,0 6.35374,1.83352 6.98551,3.11375 l 7.8352,15.8773 c 1.40595,2.84906 -3.32163,5.71031 -10.23774,5.71031 l -123.580301,0 c -6.916108,0 -11.288954,-2.84478 -10.237739,-5.71031 z"
       id="path2363"
       sodipodi:nodetypes="czzzzzzzz"
       style="fill-rule:evenodd;stroke-width:1.2259742;stroke-opacity:0.2827225"
       inkscape:connector-curvature="0" />
    <path
       d="m 81.210337,170.03356 5.546998,-14.03787 c 0.509073,-1.28832 4.689398,-2.753 8.870199,-2.753 l 108.660016,0 c 3.69519,0 6.05099,1.62109 6.65265,2.753 l 7.46187,14.03787 c 1.33896,2.51899 -3.16336,5.04876 -9.74992,5.04876 l -117.691888,0 c -6.586565,0 -10.751051,-2.51521 -9.749925,-5.04876 z"
       id="path1525"
       sodipodi:nodetypes="czzzzzzzz"
       style="fill-rule:evenodd;stroke-width:1.2259742;stroke-opacity:0.2827225"
       inkscape:connector-curvature="0" />
    <path
       d="m 88.078791,168.67401 4.991937,-12.03122 c 0.458133,-1.10417 4.220154,-2.35948 7.982602,-2.35948 l 97.78695,0 c 3.32543,0 5.44549,1.38937 5.98695,2.35948 l 6.7152,12.03122 c 1.20497,2.15891 -2.84682,4.32706 -8.7743,4.32706 l -105.915041,0 c -5.92748,0 -9.675247,-2.15567 -8.774298,-4.32706 z"
       id="path1526"
       sodipodi:nodetypes="czzzzzzzz"
       style="fill-rule:evenodd;stroke-width:1.2259742;stroke-opacity:0.2827225"
       inkscape:connector-curvature="0" />
  </g>
  <g
     id="g1942"
     transform="matrix(0.530072,0,0,0.530072,31.0537,46.08666)">
    <path
       d="m 17.159384,6.3292894 0,36.7392366 0,36.739242 0,36.739232 0,36.73924 33.52764,0 33.52764,0 33.527636,0 33.52764,0 0,-36.73924 0,-36.739232 0,-36.739242 -33.52764,-36.7392366 -33.527636,0 -33.52764,0 -33.52764,0 z"
       id="path930"
       sodipodi:nodetypes="cccccccccccccccc"
       style="fill:#ffffff;fill-rule:evenodd;stroke-width:0.42649043;stroke-opacity:0.3647799"
       inkscape:connector-curvature="0" />
    <g
       id="g1552"
       style="fill-opacity:0.06918233"
       transform="matrix(0.304171,0,0,0.297572,-36.70399,-112.488)">
      <path
         d="m 173.35959,408.8126 0,122.261 0,122.261 0,122.261 0,122.261 108.76228,0 108.7623,0 108.76229,0 108.76228,0 0,-122.261 0,-122.261 0,-122.261 -108.76228,-122.261 -108.76229,0 -108.7623,0 -108.76228,0 z"
         id="path1505"
         sodipodi:nodetypes="cccccccccccccccc"
         style="fill-rule:evenodd;stroke-width:0.95407495pt"
         inkscape:connector-curvature="0" />
      <path
         d="m 170.125,407.1875 c 0,164.63542 0,329.27083 0,493.90625 147.17708,0 294.35417,0 441.53125,0 0,-123.76042 0,-247.52083 0,-371.28125 -36.84707,-41.42272 -73.68021,-82.85915 -110.5625,-124.25 -110.32292,0 -220.64583,0 -330.96875,0 0,0.33333 0,1.41667 0,1.625 z"
         id="path1538"
         style="fill-rule:evenodd;stroke-width:0.95407495pt"
         inkscape:connector-curvature="0" />
      <path
         d="m 166.875,403.9375 c 0,166.80208 0,333.60417 0,500.40625 149.34375,0 298.6875,0 448.03125,0 0,-125.26042 0,-250.52083 0,-375.78125 -37.45108,-42.08952 -74.88871,-84.19233 -112.375,-126.25 -111.88542,0 -223.77083,0 -335.65625,0 0,0.33333 0,1.41667 0,1.625 z"
         id="path1543"
         style="fill-rule:evenodd;stroke-width:0.95407495pt"
         inkscape:connector-curvature="0" />
    </g>
    <path
       d="m 151.325,6.5114608 0,36.7392402 0,36.739237 0,36.739232 0,36.73924 -33.52764,0 -33.527637,0 -33.527637,0 -33.52764,0 0,-36.73924 0,-36.739232 0.144813,-73.4784772 66.910464,0 33.527637,0 33.52764,0 z"
       id="rect900"
       sodipodi:nodetypes="ccccccccccccccc"
       style="fill:url(#linearGradient1495);fill-opacity:1;fill-rule:evenodd;stroke:#000000;stroke-width:0.42649043;stroke-opacity:0.3647799"
       inkscape:connector-curvature="0" />
    <path
       d="m 301.30655,174.90867 -2.03586,453.99567 443.8164,0 0.25448,-112.22651 C 733.41677,520.49506 633.15091,378.49417 506.9279,384.60173 380.59029,390.71484 413.27857,193.23136 301.30655,174.90867 z"
       id="path1500"
       sodipodi:nodetypes="cccczc"
       style="fill:url(#linearGradient1499);fill-opacity:1;fill-rule:evenodd;stroke-width:1pt"
       transform="matrix(0.296689,0,0,0.296689,-71.19601,-34.05825)"
       inkscape:connector-curvature="0" />
  </g>
  <path
     d="m 10.340118,97.466914 5.320125,34.698836 c 0.48825,3.18446 4.497599,6.80485 8.507404,6.80485 l 104.215763,0 c 3.54405,0 5.80351,-4.00703 6.38056,-6.80485 l 7.15666,-34.698836 c 1.2842,-6.226419 -3.03397,-12.479479 -9.35114,-12.479479 l -112.878223,0 c -6.317171,0 -10.311327,6.217039 -9.351149,12.479479 z"
     id="path1501"
     sodipodi:nodetypes="czzzzzzzz"
     style="fill:url(#linearGradient3047);fill-rule:evenodd;stroke:#807d74;stroke-width:1.11811972;stroke-opacity:0.33962265"
     inkscape:connector-curvature="0" />
  <path
     d="m 11.36376,101.2785 c -0.21897,1.07113 3.873214,-9.44183 10.811191,-9.44183 l 105.983519,0 c 8.53502,0 11.26695,10.51296 11.48593,9.44183 0.21898,-1.07112 4.57998,-15.868602 -11.30958,-15.868602 l -105.661479,0 c -13.445854,0 -11.090619,14.797482 -11.309581,15.868602 z"
     id="path1503"
     sodipodi:nodetypes="czzzzzz"
     style="fill:url(#linearGradient1516);fill-rule:evenodd;stroke-width:0.90415878pt"
     inkscape:connector-curvature="0" />
  <metadata
     id="metadata70">
    <rdf:RDF>
      <cc:Work>
        <dc:format>image/svg+xml</dc:format>
        <dc:type
           rdf:resource="http://purl.org/dc/dcmitype/StillImage" />
        <cc:license
           rdf:resource="http://creativecommons.org/licenses/publicdomain/" />
        <dc:publisher>
          <cc:Agent
             rdf:about="http://openclipart.org/">
            <dc:title>Open Clip Art Library</dc:title>
          </cc:Agent>
        </dc:publisher>
        <dc:title>Directory Accept</dc:title>
        <dc:date>2009-04-27T09:22:12</dc:date>
        <dc:description>An open directory or folder icon by Andrew Fitzsimon. Etiquette Icon set. From 0.18 OCAL database.</dc:description>
        <dc:source>http://openclipart.org/detail/25344/directory-accept-by-anonymous-25344</dc:source>
        <dc:creator>
          <cc:Agent>
            <dc:title>Anonymous</dc:title>
          </cc:Agent>
        </dc:creator>
        <dc:subject>
          <rdf:Bag>
            <rdf:li>clip art</rdf:li>
            <rdf:li>clipart</rdf:li>
            <rdf:li>computer</rdf:li>
            <rdf:li>computer</rdf:li>
            <rdf:li>directory</rdf:li>
            <rdf:li>directory</rdf:li>
            <rdf:li>etiquette</rdf:li>
            <rdf:li>etiquette</rdf:li>
            <rdf:li>filesystem</rdf:li>
            <rdf:li>filesystem</rdf:li>
            <rdf:li>folder</rdf:li>
            <rdf:li>folder</rdf:li>
            <rdf:li>gnome</rdf:li>
            <rdf:li>gnome</rdf:li>
            <rdf:li>icon</rdf:li>
            <rdf:li>icon</rdf:li>
            <rdf:li>image</rdf:li>
            <rdf:li>media</rdf:li>
            <rdf:li>png</rdf:li>
            <rdf:li>public domain</rdf:li>
            <rdf:li>svg</rdf:li>
          </rdf:Bag>
        </dc:subject>
      </cc:Work>
      <cc:License
         rdf:about="http://creativecommons.org/licenses/publicdomain/">
        <cc:permits
           rdf:resource="http://creativecommons.org/ns#Reproduction" />
        <cc:permits
           rdf:resource="http://creativecommons.org/ns#Distribution" />
        <cc:permits
           rdf:resource="http://creativecommons.org/ns#DerivativeWorks" />
      </cc:License>
    </rdf:RDF>
  </metadata>
</svg>
